inDegrees=no
num_controls=7
num_derivatives=13
num_iterations=98
num_multipliers=7
num_parameters=0
num_slacks=7
num_states=26
objective=0.454546
objective_accelerations=0.043765
objective_balance=0.000794
objective_effort=0.035982
objective_height=0.367909
objective_ligament=0.006096
solver_duration=1111.943285
status=Solve_Succeeded
success=true
DataType=double
version=3
OpenSimVersion=4.5
endheader
time	/jointset/ground_pelvis/pelvis_tilt/value	/jointset/ground_pelvis/pelvis_tx/value	/jointset/ground_pelvis/pelvis_ty/value	/jointset/hip_r/hip_flexion_r/value	/jointset/hip_r/hip_adduction_r/value	/jointset/hip_r/hip_rotation_r/value	/jointset/back/lumbar_extension/value	/jointset/patellofemoral_r/patellar_flexion_r/value	/jointset/knee_r/knee_flexion_r/value	/jointset/knee_r/knee_adduction_r/value	/jointset/knee_r/knee_rotation_r/value	/jointset/ankle_r/ankle_angle_r/value	/jointset/subtalar_r/subtalar_angle_r/value	/jointset/ground_pelvis/pelvis_tilt/speed	/jointset/ground_pelvis/pelvis_tx/speed	/jointset/ground_pelvis/pelvis_ty/speed	/jointset/hip_r/hip_flexion_r/speed	/jointset/hip_r/hip_adduction_r/speed	/jointset/hip_r/hip_rotation_r/speed	/jointset/back/lumbar_extension/speed	/jointset/patellofemoral_r/patellar_flexion_r/speed	/jointset/knee_r/knee_flexion_r/speed	/jointset/knee_r/knee_adduction_r/speed	/jointset/knee_r/knee_rotation_r/speed	/jointset/ankle_r/ankle_angle_r/speed	/jointset/subtalar_r/subtalar_angle_r/speed	/forceset/tau_hip_flexion_r	/forceset/tau_hip_adduction_r	/forceset/tau_hip_rotation_r	/forceset/tau_knee_flexion_r	/forceset/tau_ankle_angle_r	/forceset/tau_subtalar_angle_r	/forceset/tau_lumbar_extension	lambda_cid13_p0	lambda_cid14_p0	lambda_cid14_p1	lambda_cid14_p2	lambda_cid14_p3	lambda_cid14_p4	lambda_cid14_p5	/jointset/ground_pelvis/pelvis_tilt/accel	/jointset/ground_pelvis/pelvis_tx/accel	/jointset/ground_pelvis/pelvis_ty/accel	/jointset/hip_r/hip_flexion_r/accel	/jointset/hip_r/hip_adduction_r/accel	/jointset/hip_r/hip_rotation_r/accel	/jointset/back/lumbar_extension/accel	/jointset/patellofemoral_r/patellar_flexion_r/accel	/jointset/knee_r/knee_flexion_r/accel	/jointset/knee_r/knee_adduction_r/accel	/jointset/knee_r/knee_rotation_r/accel	/jointset/ankle_r/ankle_angle_r/accel	/jointset/subtalar_r/subtalar_angle_r/accel	gamma_cid13_p0	gamma_cid14_p0	gamma_cid14_p1	gamma_cid14_p2	gamma_cid14_p3	gamma_cid14_p4	gamma_cid14_p5
1	-0.2009907689710058	-0.0005972925021242925	0.6618043700067899	1.325816368377492	-0.2547279423194562	0.09330124660360604	-0.785398096841415	1.462849871611589	1.46284987161157	0.04897610945806682	0.1745288534081617	0.4362561751115387	0.1403394777720686	0.07204535816808207	0.005523441113129354	0.01433743288494809	-0.1012810692965911	-0.00186674780137711	-0.004590097786545279	4.860803939188473e-05	-0.01541941011086747	-0.01541941011086933	0.00208440745155474	2.505912958768359e-06	0.01356196437654844	0.00277099363007848	-0.3098231336480833	0.02076158526892102	0.05079016513022627	-0.4614329853705221	-0.02593727602883672	-0.01595968741080362	0.3428372999352659	-0.04067222713561506	-60.39942045770907	-20.28298737722077	6.826677976976225	7.863544163902353	-758.4536391671206	69.2365899261919	1.202428254443372	0.1445265303152476	1.630178487965375	-4.948883902688853	-0.07013626256113684	-1.491879369595564	0.003649343849943289	-4.719297390671757	-4.719297390670256	0.07278730214467004	0.00430542083645817	-1.200821889853514	-0.64124142564074	1.109504834677734e-10	-2.921659054225632e-09	-7.390892009605896e-09	9.409160686423528e-10	6.113675317619671e-09	-6.359024504562366e-09	-1.533398851173316e-08
1.01	-0.2002109064267364	-0.0005345842957070832	0.6620291630664197	1.32455664615997	-0.2547500450307995	0.09318072089538666	-0.7853948124825694	1.4624599308518	1.462459930851786	0.0490003674713729	0.1745288877772808	0.4363322081864084	0.1403354607356938	0.0839215676200418	0.007045914045680271	0.03062538230978529	-0.1507013018278433	-0.002557160537577331	-0.01950701929029379	0.0007942026165302956	-0.06257007145522492	-0.06257007145522302	0.002779021929134587	5.142557277689004e-06	0.001687712078242873	-0.003561043262862604	-0.3110094899008597	0.020871792971341	0.05078556999298214	-0.4612761958616173	-0.02644661840939373	-0.01589845705721661	0.3443043977794871	-0.04066208831729308	-60.60446451308884	-20.28512447629075	6.818826082171276	7.618501257613481	-759.3938567158211	69.23930935208415	1.179380085827566	0.1602671289712947	1.628731404703838	-4.944282178175389	-0.06899823978188208	-1.490396016570043	0.1379053504811565	-4.71314983877128	-4.713149838771701	0.06957325606375345	-0.001642821488530022	-1.174268266573501	-0.6271828480266199	-5.374951498330565e-10	-5.833053685163285e-09	-8.185961106995569e-09	-4.287918303473453e-09	1.180715695207864e-08	-1.122761256856004e-08	-2.203582044488084e-08
1.02	-0.1993124492288972	-0.000455819469115097	0.6624169612672899	1.322801583767172	-0.2547791527616314	0.09291126647696955	-0.7853784940109435	1.461598443612078	1.461598443612065	0.0490319265765546	0.1745289713913	0.4362907904649573	0.1402685237250083	0.09576428888221486	0.00873476514808476	0.04693846113305941	-0.200349104352374	-0.003267751699074159	-0.0343758398262643	0.002655430627084953	-0.1097287060977243	-0.1097287060977283	0.003544625826679293	1.235489287117218e-05	-0.009928194890239708	-0.009813001232036907	-0.3121958461536201	0.0209820006737623	0.05078097485573652	-0.461119406352712	-0.02695596078995276	-0.01583722670362797	0.3457714956237229	-0.04065773210682622	-60.81724364032505	-20.28595710452194	6.807729460931564	7.380842231976768	-760.4751624666778	69.2418736336956	1.195730616486032	0.1778021642859647	1.635204367652761	-4.99439790134456	-0.07417194762046048	-1.482259176039965	0.2267760305333493	-4.720892050300145	-4.720892050300583	0.0869851861376425	0.005220559091375743	-1.149152823888911	-0.6252256408873859	-8.794061526216231e-10	-5.407366603639216e-09	-2.968198277960642e-09	-8.355014975243817e-09	9.938712931285349e-09	-1.391158709292081e-08	-1.7517035315208e-08
1.03	-0.1982960062059769	-0.0003594739465042029	0.6629679297463995	1.320549481842173	-0.2548154044216426	0.09249330203881215	-0.7853381524639168	1.460265238851193	1.460265238851191	0.0490713849219542	0.1745291372393758	0.4361341084065672	0.1401394271550617	0.1074912903578701	0.01054828787224053	0.0632508232937368	-0.2500517682524274	-0.003980390936860277	-0.04921559763213145	0.005582843212443458	-0.1569227215392339	-0.1569227215392398	0.004348553850159361	2.211751261345725e-05	-0.02140482926776431	-0.01599842575227477	-0.312893439574408	0.02111635114320145	0.05074576906567696	-0.4605158507817097	-0.02781772015385456	-0.01572776065563289	0.3467292307446884	-0.04067567149082828	-61.11262918970306	-20.26760800996209	6.779071745932045	7.434312482590428	-761.0205623506391	69.22036113875106	1.156231210914631	0.1852211880392151	1.628587100220197	-4.955274086519315	-0.06948242054355089	-1.484619390872028	0.3512185375627394	-4.72022736438508	-4.720227364385045	0.07732540798198857	-0.0009532575502974776	-1.146411260084092	-0.6140188143645243	-1.218189251017206e-09	-4.947627667906334e-09	2.310919978894979e-09	-1.241025718068412e-08	7.993106403805767e-09	-1.65732696423873e-08	-1.288375409305734e-08
